<?xml version="1.0" encoding="UTF-8"?>
<svg id="Calque_2" data-name="Calque 2" xmlns="http://www.w3.org/2000/svg" xmlns:xlink="http://www.w3.org/1999/xlink" viewBox="0 0 548.41 489.18">
  <defs>
    <style>
      .cls-1 {
        clip-path: url(#clippath-4);
      }

      .cls-1, .cls-2, .cls-3, .cls-4, .cls-5, .cls-6, .cls-7, .cls-8, .cls-9, .cls-10, .cls-11, .cls-12, .cls-13, .cls-14, .cls-15, .cls-16, .cls-17, .cls-18, .cls-19, .cls-20, .cls-21, .cls-22 {
        fill: none;
      }

      .cls-2 {
        clip-path: url(#clippath-2);
      }

      .cls-3 {
        clip-path: url(#clippath-6);
      }

      .cls-4 {
        clip-path: url(#clippath-9);
      }

      .cls-5 {
        clip-path: url(#clippath-12);
      }

      .cls-6 {
        clip-path: url(#clippath-13);
      }

      .cls-7 {
        clip-path: url(#clippath-7);
      }

      .cls-8 {
        clip-path: url(#clippath-18);
      }

      .cls-9 {
        stroke: #e50695;
        stroke-miterlimit: 10;
        stroke-width: 4.21px;
      }

      .cls-10 {
        clip-path: url(#clippath-10);
      }

      .cls-11 {
        clip-path: url(#clippath-5);
      }

      .cls-23 {
        fill: #e50695;
      }

      .cls-12 {
        clip-path: url(#clippath-16);
      }

      .cls-24 {
        fill: #e284b6;
      }

      .cls-13 {
        clip-path: url(#clippath-15);
      }

      .cls-14 {
        clip-path: url(#clippath-3);
      }

      .cls-15 {
        clip-path: url(#clippath-11);
      }

      .cls-16 {
        clip-path: url(#clippath-19);
      }

      .cls-25 {
        fill: #d97eb3;
      }

      .cls-18 {
        clip-path: url(#clippath-17);
      }

      .cls-19 {
        clip-path: url(#clippath);
      }

      .cls-26 {
        fill: #ed1c24;
      }

      .cls-20 {
        clip-path: url(#clippath-1);
      }

      .cls-21 {
        clip-path: url(#clippath-8);
      }

      .cls-22 {
        clip-path: url(#clippath-14);
      }
    </style>
    <clipPath id="clippath">
      <rect class="cls-17" y="0" width="548.41" height="489.18"/>
    </clipPath>
    <clipPath id="clippath-1">
      <rect class="cls-17" y="0" width="548.41" height="489.18"/>
    </clipPath>
    <clipPath id="clippath-2">
      <rect class="cls-17" y="0" width="548.41" height="489.18"/>
    </clipPath>
    <clipPath id="clippath-3">
      <rect class="cls-17" y="0" width="548.41" height="489.18"/>
    </clipPath>
    <clipPath id="clippath-4">
      <rect class="cls-17" y="0" width="548.41" height="489.18"/>
    </clipPath>
    <clipPath id="clippath-5">
      <rect class="cls-17" y="0" width="548.41" height="489.18"/>
    </clipPath>
    <clipPath id="clippath-6">
      <rect class="cls-17" y="0" width="548.41" height="489.18"/>
    </clipPath>
    <clipPath id="clippath-7">
      <rect class="cls-17" y="0" width="548.41" height="489.18"/>
    </clipPath>
    <clipPath id="clippath-8">
      <rect class="cls-17" y="0" width="548.41" height="489.18"/>
    </clipPath>
    <clipPath id="clippath-9">
      <rect class="cls-17" y="0" width="548.41" height="489.18"/>
    </clipPath>
    <clipPath id="clippath-10">
      <rect class="cls-17" y="0" width="548.41" height="489.18"/>
    </clipPath>
    <clipPath id="clippath-11">
      <rect class="cls-17" y="0" width="548.41" height="489.18"/>
    </clipPath>
    <clipPath id="clippath-12">
      <rect class="cls-17" y="0" width="548.41" height="489.18"/>
    </clipPath>
    <clipPath id="clippath-13">
      <rect class="cls-17" y="0" width="548.41" height="489.18"/>
    </clipPath>
    <clipPath id="clippath-14">
      <rect class="cls-17" y="0" width="548.41" height="489.18"/>
    </clipPath>
    <clipPath id="clippath-15">
      <rect class="cls-17" y="0" width="548.41" height="489.18"/>
    </clipPath>
    <clipPath id="clippath-16">
      <rect class="cls-17" y="0" width="548.41" height="489.18"/>
    </clipPath>
    <clipPath id="clippath-17">
      <rect class="cls-17" y="0" width="548.41" height="489.18"/>
    </clipPath>
    <clipPath id="clippath-18">
      <rect class="cls-17" y="0" width="548.41" height="489.18"/>
    </clipPath>
    <clipPath id="clippath-19">
      <rect class="cls-17" y="0" width="548.41" height="489.18"/>
    </clipPath>
  </defs>
  <g id="Calque_2-2" data-name="Calque 2">
    <g class="cls-19">
      <path class="cls-9" d="m437.46,265.65c-18.36,81.63-99.41,132.93-181.04,114.57-81.63-18.36-132.93-99.41-114.57-181.05,18.35-81.63,99.41-132.92,181.04-114.57,81.63,18.36,132.93,99.42,114.57,181.05Z"/>
      <path class="cls-23" d="m349.25,39.31c-1.91,8.51-10.36,13.85-18.86,11.93-8.5-1.91-13.84-10.36-11.93-18.86,1.91-8.5,10.35-13.84,18.86-11.93,8.51,1.91,13.85,10.36,11.93,18.86"/>
      <path class="cls-25" d="m390.4,53.33c-1.91,8.51-10.36,13.85-18.86,11.93-8.5-1.91-13.84-10.36-11.93-18.86,1.91-8.5,10.36-13.84,18.86-11.93,8.51,1.91,13.85,10.36,11.93,18.86"/>
      <path class="cls-25" d="m426.5,75.07c-1.91,8.51-10.36,13.85-18.86,11.93-8.5-1.91-13.84-10.36-11.93-18.86,1.91-8.5,10.36-13.84,18.86-11.93,8.51,1.91,13.85,10.36,11.93,18.86"/>
      <path class="cls-25" d="m456.81,103.34c-1.91,8.5-10.36,13.85-18.86,11.93-8.5-1.91-13.84-10.36-11.93-18.86,1.91-8.5,10.35-13.84,18.86-11.93,8.51,1.91,13.85,10.36,11.93,18.86"/>
      <path class="cls-25" d="m480.59,136.99c-1.91,8.51-10.36,13.85-18.86,11.93-8.5-1.91-13.84-10.36-11.93-18.86,1.91-8.5,10.35-13.84,18.86-11.93,8.51,1.91,13.85,10.36,11.93,18.86"/>
      <path class="cls-25" d="m497.09,174.83c-1.91,8.51-10.36,13.85-18.86,11.93-8.5-1.91-13.84-10.36-11.93-18.86,1.91-8.5,10.36-13.84,18.86-11.93,8.51,1.91,13.85,10.35,11.93,18.86"/>
      <path class="cls-24" d="m505.57,215.7c-1.91,8.51-10.36,13.85-18.86,11.93-8.5-1.91-13.84-10.36-11.93-18.86,1.91-8.5,10.36-13.84,18.86-11.93,8.51,1.91,13.85,10.35,11.93,18.86"/>
      <path class="cls-24" d="m505.28,258.4c-1.91,8.5-10.36,13.85-18.86,11.93-8.5-1.91-13.84-10.36-11.93-18.86,1.91-8.5,10.36-13.84,18.86-11.93,8.51,1.91,13.85,10.36,11.93,18.86"/>
      <path class="cls-24" d="m495.65,301.24c-1.91,8.51-10.36,13.85-18.86,11.93-8.5-1.91-13.84-10.36-11.93-18.86,1.91-8.5,10.35-13.84,18.86-11.93,8.51,1.91,13.85,10.35,11.93,18.86"/>
      <path class="cls-24" d="m477.62,339.95c-1.91,8.51-10.36,13.85-18.86,11.93-8.5-1.91-13.84-10.36-11.93-18.86,1.91-8.5,10.36-13.84,18.86-11.93,8.51,1.91,13.85,10.36,11.93,18.86"/>
      <path class="cls-24" d="m452.47,373.25c-1.91,8.51-10.36,13.85-18.86,11.93-8.5-1.91-13.84-10.36-11.93-18.86,1.91-8.5,10.35-13.84,18.86-11.93,8.51,1.91,13.85,10.36,11.93,18.86"/>
      <path class="cls-24" d="m421.36,400.39c-1.91,8.51-10.36,13.85-18.86,11.93-8.5-1.91-13.84-10.36-11.93-18.86,1.91-8.5,10.36-13.84,18.86-11.93,8.51,1.91,13.85,10.35,11.93,18.86"/>
      <path class="cls-24" d="m385.47,420.62c-1.91,8.51-10.36,13.85-18.86,11.93-8.5-1.91-13.84-10.36-11.93-18.86,1.91-8.51,10.35-13.85,18.86-11.93,8.51,1.91,13.85,10.35,11.93,18.86"/>
      <path class="cls-24" d="m345.97,433.2c-1.91,8.51-10.36,13.85-18.86,11.93-8.5-1.91-13.84-10.36-11.93-18.86,1.91-8.5,10.35-13.84,18.86-11.93,8.51,1.91,13.85,10.35,11.93,18.86"/>
      <path class="cls-26" d="m304.04,437.39c-1.91,8.51-10.36,13.85-18.86,11.93-8.5-1.91-13.84-10.36-11.93-18.86,1.91-8.51,10.36-13.85,18.86-11.93,8.51,1.91,13.85,10.35,11.93,18.86"/>
      <path class="cls-26" d="m260.85,432.44c-1.91,8.51-10.36,13.85-18.86,11.93-8.5-1.91-13.84-10.36-11.93-18.86,1.91-8.5,10.35-13.84,18.86-11.93,8.51,1.91,13.85,10.36,11.93,18.86"/>
      <path class="cls-23" d="m219.7,418.43c-1.91,8.51-10.36,13.85-18.86,11.93-8.5-1.91-13.84-10.36-11.93-18.86,1.91-8.5,10.35-13.84,18.86-11.93,8.51,1.91,13.85,10.36,11.93,18.86"/>
      <path class="cls-23" d="m183.6,396.69c-1.91,8.51-10.36,13.85-18.86,11.93-8.51-1.91-13.85-10.36-11.93-18.86,1.91-8.5,10.35-13.84,18.86-11.93,8.51,1.91,13.85,10.35,11.93,18.86"/>
      <path class="cls-23" d="m153.29,368.41c-1.91,8.51-10.36,13.85-18.86,11.93-8.51-1.91-13.85-10.36-11.93-18.86,1.91-8.5,10.36-13.84,18.86-11.93,8.51,1.91,13.85,10.36,11.93,18.86"/>
      <path class="cls-23" d="m129.52,334.76c-1.91,8.5-10.36,13.85-18.86,11.93-8.5-1.91-13.84-10.36-11.93-18.86,1.91-8.5,10.36-13.84,18.86-11.93,8.51,1.91,13.85,10.36,11.93,18.86"/>
      <path class="cls-23" d="m113.02,296.92c-1.91,8.51-10.36,13.85-18.86,11.93-8.5-1.91-13.84-10.36-11.93-18.86,1.91-8.5,10.35-13.84,18.86-11.93,8.51,1.91,13.85,10.36,11.93,18.86"/>
      <path class="cls-23" d="m104.54,256.06c-1.91,8.51-10.36,13.85-18.86,11.93-8.51-1.91-13.85-10.36-11.93-18.86,1.91-8.5,10.36-13.84,18.86-11.93,8.51,1.91,13.85,10.36,11.93,18.86"/>
      <path class="cls-23" d="m104.83,213.35c-1.91,8.51-10.36,13.85-18.86,11.93-8.5-1.91-13.84-10.36-11.93-18.86,1.91-8.5,10.36-13.84,18.86-11.93,8.51,1.91,13.85,10.36,11.93,18.86"/>
      <path class="cls-23" d="m114.46,170.52c-1.91,8.51-10.36,13.85-18.86,11.93-8.5-1.91-13.84-10.36-11.93-18.86,1.91-8.5,10.36-13.84,18.86-11.93,8.51,1.91,13.85,10.35,11.93,18.86"/>
      <path class="cls-23" d="m132.48,131.8c-1.91,8.51-10.36,13.85-18.86,11.93-8.51-1.91-13.85-10.36-11.93-18.86,1.91-8.5,10.35-13.84,18.86-11.93,8.51,1.91,13.85,10.36,11.93,18.86"/>
      <path class="cls-23" d="m157.63,98.5c-1.91,8.51-10.36,13.85-18.86,11.93-8.5-1.91-13.84-10.36-11.93-18.86,1.91-8.51,10.36-13.85,18.86-11.93,8.51,1.91,13.85,10.35,11.93,18.86"/>
      <path class="cls-23" d="m188.74,71.37c-1.91,8.51-10.36,13.85-18.86,11.93-8.5-1.91-13.84-10.36-11.93-18.86,1.91-8.5,10.36-13.84,18.86-11.93,8.51,1.91,13.85,10.36,11.93,18.86"/>
      <path class="cls-23" d="m224.64,51.14c-1.91,8.51-10.36,13.85-18.86,11.93-8.5-1.91-13.84-10.36-11.93-18.86,1.91-8.5,10.35-13.84,18.86-11.93,8.51,1.91,13.85,10.35,11.93,18.86"/>
      <path class="cls-23" d="m264.13,38.55c-1.91,8.51-10.36,13.85-18.86,11.93-8.5-1.91-13.84-10.36-11.93-18.86,1.91-8.5,10.36-13.84,18.86-11.93,8.51,1.91,13.85,10.36,11.93,18.86"/>
      <path class="cls-23" d="m306.06,34.37c-1.91,8.51-10.36,13.85-18.86,11.93-8.5-1.91-13.84-10.36-11.93-18.86,1.91-8.5,10.36-13.84,18.86-11.93,8.51,1.91,13.85,10.36,11.93,18.86"/>
      <path class="cls-23" d="m349.25,39.31c-1.91,8.51-10.36,13.85-18.86,11.93-8.5-1.91-13.84-10.36-11.93-18.86,1.91-8.5,10.35-13.84,18.86-11.93,8.51,1.91,13.85,10.36,11.93,18.86"/>
    </g>
    <polygon class="cls-25" points="461.56 0 443.77 10.42 446.26 13.41 456.85 6.92 456.89 6.96 449.98 18.31 450.84 19.35 463.38 14.78 463.41 14.82 454.95 23.89 457.43 26.88 471.19 11.61 469.41 9.46 456.37 14.2 463.31 2.11 461.56 0"/>
    <g class="cls-20">
      <path class="cls-25" d="m469.84,29.08c.89-.98,1.35-2.45.44-3.54-.94-1.13-2.44-.95-3.58-.24l3.14,3.78Zm-4.97-2.4c-1.25,1.04-2.27,2.7-1.04,4.17.77.93,1.82,1.05,2.93.78l1.74,2.96c-2.55.96-5.11.14-6.84-1.94-2.55-3.07-1.93-6.77,1.09-9.27,3.01-2.5,6.71-2.86,9.37.35,2.7,3.26,1.5,6.71-1.49,9.19l-.34.29-5.42-6.53Z"/>
      <path class="cls-25" d="m478.25,33.62l.03.04c1.38-.15,2.55.56,3.38,1.57,2.22,2.67.97,5-1.33,6.91l-6.07,5.04-2.35-2.83,5.26-4.36c1.2-.99,2.78-2.2,1.45-3.8-1.39-1.68-3.29-.14-4.48.85l-4.92,4.08-2.35-2.83,9.93-8.24,2.35,2.83-.91.75Z"/>
      <path class="cls-25" d="m487.76,48.01c.04-.72-.08-1.5-.55-2.06-.39-.47-1.14-.63-1.62-.23-.73.6-.07,1.81.32,3.18.41,1.4.57,2.98-1.16,4.41-2.21,1.82-5,1.14-6.72-.95-1.11-1.34-1.58-3.14-1.24-4.88l2.75-.09c-.16,1.05-.1,2.23.59,3.06.52.62,1.36.78,2.01.24.87-.72.25-1.88-.15-3.22-.4-1.34-.63-2.82.97-4.14,1.86-1.54,4.29-1.37,5.83.49.87,1.05,1.66,2.65,1.62,4.05l-2.64.15Z"/>
    </g>
    <polygon class="cls-25" points="485.46 60.68 483.11 57.85 490.66 51.59 489.85 50.62 492.24 48.64 493.05 49.61 496.4 46.83 498.75 49.66 495.4 52.45 496.84 54.19 494.45 56.16 493.01 54.43 485.46 60.68"/>
    <g class="cls-2">
      <path class="cls-25" d="m498.68,58.51l.03.04c1.34-.16,2.53.29,3.4,1.35.33.4.57.89.73,1.37l-2.92,1.84c-.04-.55-.25-1.05-.61-1.48-1.63-1.96-3.54-.72-5.08.55l-4.47,3.71-2.35-2.83,9.93-8.24,2.35,2.83-1.03.86Z"/>
      <path class="cls-25" d="m506.16,65.42l-5.38,4.46c-1.13.94-2.34,2.25-1.14,3.68,1.19,1.44,2.7.5,3.83-.45l5.38-4.46,2.35,2.83-5.85,4.85c-2.89,2.4-5.65,2.16-8.1-.79-2.45-2.95-2.18-5.71.71-8.11l5.85-4.85,2.35,2.83Z"/>
      <path class="cls-25" d="m513.59,84.47c1.33-1.11,2.02-3.21.81-4.67-1.21-1.46-3.39-1.16-4.72-.05-1.33,1.11-2.05,3.21-.84,4.67,1.21,1.45,3.42,1.16,4.75.05m-2.89,6.64l-2.31-2.79.91-.75-.03-.04c-1.29.04-2.61-.64-3.47-1.67-2.41-2.91-1.14-6.77,1.55-9,2.63-2.18,6.63-2.67,9,.18.86,1.03,1.28,2.45,1.04,3.81l.93-.77,2.32,2.79-9.93,8.24Z"/>
    </g>
    <polygon class="cls-25" points="515.03 96.34 512.68 93.5 520.23 87.24 519.42 86.27 521.81 84.29 522.62 85.27 525.97 82.48 528.32 85.32 524.96 88.1 526.41 89.83 524.02 91.81 522.58 90.08 515.03 96.34"/>
    <g class="cls-14">
      <path class="cls-25" d="m533.78,90.25c-.93.77-2.3.65-3.07-.29-.77-.93-.64-2.3.29-3.07.91-.75,2.3-.64,3.07.29.78.93.62,2.31-.29,3.07m-14.32,11.44l-2.35-2.83,9.93-8.24,2.35,2.83-9.93,8.24Z"/>
      <path class="cls-25" d="m528.01,101.9c-1.33,1.11-2.03,3.19-.82,4.65,1.2,1.46,3.38,1.16,4.71.05,1.38-1.14,2.06-3.21.85-4.66-1.21-1.46-3.36-1.18-4.74-.04m6.28,7.57c-3.08,2.55-7.03,2.27-9.61-.84-2.58-3.12-2.12-7.05.95-9.6,3.1-2.57,7.06-2.27,9.63.82,2.57,3.1,2.13,7.05-.97,9.62"/>
      <path class="cls-25" d="m541.82,110.27l.03.04c1.38-.15,2.54.55,3.38,1.57,2.22,2.67.97,5-1.33,6.91l-6.07,5.03-2.35-2.83,5.26-4.36c1.19-.99,2.78-2.2,1.45-3.8-1.39-1.68-3.29-.14-4.48.85l-4.91,4.08-2.35-2.83,9.93-8.24,2.35,2.83-.91.75Z"/>
      <path class="cls-25" d="m451.93,55.91l-1.27,1.05-5.95-7.17,9.99-.09c.94,0,2.07-.05,2.81-.66,1.16-.96,1.27-2.79.31-3.94-.94-1.13-2.62-1.3-3.8-.45l-1.15-1.39c2.16-1.41,4.54-1.23,6.22.78,1.56,1.89,1.5,4.66-.42,6.26-.83.68-1.9,1.06-2.97,1.07l-7.49.05,3.71,4.47Z"/>
      <path class="cls-25" d="m468.51,56.49l-.92,3.87-.94-.32.19-4.23,1.66.69Zm-5.24,8.67c1.34-1.11,1.8-2.86.62-4.29-1.13-1.36-3-1.19-4.28-.13-1.29,1.07-1.85,2.86-.69,4.25,1.2,1.44,3,1.28,4.36.16m-2.41,4.1l-1.1-1.32,1.07-.89-.03-.03c-1.22.12-2.43-.27-3.25-1.25-1.74-2.11-.98-4.75.99-6.39,1.89-1.57,4.65-1.74,6.31.26.84,1.02.99,2.28.62,3.51l.02.03,1.15-.95,1.1,1.32-6.89,5.71Z"/>
      <path class="cls-25" d="m478.44,70.44l-2.85,1.2.69.74c1.78,2.15,1.11,5.09-.93,6.78-2.34,1.94-5.46,1.45-7.35-.83-1.14-1.37-1.55-3.33-.87-5l1.82.22c-.66,1.12-.43,2.84.39,3.83,1.24,1.5,3.46,1.65,4.95.42,1.43-1.19,1.62-3.41.44-4.84-.65-.78-1.69-1.28-2.71-1.26l-.22-.26,7.11-3.01,3.68,4.44-1.26,1.05-2.89-3.49Z"/>
      <path class="cls-25" d="m487.97,81.51c-.5.41-1.24.33-1.65-.16-.41-.5-.36-1.24.14-1.66.52-.43,1.27-.36,1.68.15.42.5.35,1.25-.17,1.68m-14.19,11.35l-1.1-1.32,10.83-8.98,1.1,1.32-10.83,8.98Z"/>
      <path class="cls-25" d="m483.5,89.57c-1.3,1.07-1.53,3.04-.45,4.35,1.08,1.31,3.06,1.44,4.35.36,1.31-1.08,1.53-3.04.45-4.34-1.09-1.31-3.04-1.45-4.35-.37m5,6.03c-2.08,1.72-5.01,1.42-6.72-.64-1.71-2.06-1.46-5,.62-6.73,2.07-1.72,5.01-1.41,6.72.65,1.71,2.06,1.46,5-.61,6.72"/>
      <path class="cls-25" d="m494,95.2l-3.81,3.16c-1.11.91-1.85,2-.76,3.31,1.08,1.31,2.29.78,3.39-.13l3.81-3.16,1.1,1.32-3.96,3.29c-1.88,1.56-3.9,1.74-5.58-.29-1.69-2.03-1.14-3.98.75-5.54l3.96-3.28,1.1,1.32Z"/>
      <path class="cls-25" d="m499.25,103.8l.04.04c1.08-.35,2.16-.1,2.89.78.32.38.5.87.57,1.37l-1.71.4c0-.41-.14-.74-.39-1.04-1.19-1.43-2.66-.5-3.78.42l-3.39,2.81-1.1-1.32,6.89-5.71,1.1,1.32-1.12.93Z"/>
      <path class="cls-25" d="m504.2,110.69c.21-.44.19-1-.12-1.38-.31-.37-.9-.48-1.28-.16-.61.5-.21,1.52.09,2.63.3,1.11.45,2.31-.64,3.21-1.31,1.09-3.18.8-4.25-.48-.83-.99-1.1-2.49-.43-3.67l1.45.71c-.28.7-.37,1.35.16,1.98.46.56,1.25.74,1.84.25.37-.31.4-.63.34-1.11l-.38-1.87c-.22-1.11-.3-1.98.64-2.77,1.12-.93,2.76-.74,3.69.37.7.83.8,1.89.35,2.88l-1.46-.6Z"/>
      <path class="cls-23" d="m9.93,214.36l.24-.75c.7-2.18.6-3.51-1.86-4.29-2.43-.77-3.23.52-3.88,2.57l-.21.65,5.7,1.82Zm10.12,3.23l-1.17,3.68L0,215.24l1.6-5.01c1.27-3.95,3.67-6.03,7.94-4.66,4.01,1.28,5.26,4.08,4.03,7.94l-.58,1.82,7.06,2.26Z"/>
      <path class="cls-23" d="m2.96,197.85l9.96,3.18.02-.05c-.77-1.05-.81-2.41-.41-3.66,1.06-3.3,3.69-3.51,6.54-2.6l7.51,2.4-1.12,3.5-6.51-2.08c-1.48-.47-3.35-1.16-3.99.82-.66,2.08,1.65,2.85,3.14,3.32l6.08,1.94-1.12,3.51-21.22-6.78,1.12-3.51Z"/>
      <path class="cls-23" d="m23.96,184.13c-1.65-.53-3.79.03-4.37,1.83-.58,1.8.85,3.47,2.5,4,1.65.53,3.8,0,4.38-1.8.58-1.8-.87-3.51-2.52-4.03m7.15-1.14l-1.1,3.46-1.13-.37v.05c.72,1.06.86,2.54.45,3.82-1.15,3.6-5.09,4.61-8.42,3.55-3.26-1.04-5.82-4.15-4.69-7.68.41-1.28,1.37-2.4,2.65-2.93l-1.16-.37,1.11-3.46,12.29,3.93Z"/>
      <path class="cls-23" d="m24.55,171.15c-.64.35-1.22.88-1.45,1.58-.18.58.08,1.3.69,1.49.9.29,1.55-.91,2.51-1.98.96-1.1,2.21-2.08,4.34-1.4,2.73.87,3.65,3.59,2.83,6.18-.53,1.65-1.79,3.01-3.44,3.67l-1.57-2.27c.97-.43,1.93-1.12,2.26-2.15.25-.78-.08-1.57-.88-1.83-1.07-.34-1.72.81-2.63,1.86-.92,1.06-2.04,2.06-4.02,1.42-2.3-.74-3.47-2.88-2.73-5.18.41-1.3,1.34-2.83,2.54-3.55l1.55,2.15Z"/>
      <path class="cls-23" d="m29.88,160.1c-1.31-.22-2.79.18-3.22,1.54-.45,1.4.5,2.56,1.73,3.14l1.5-4.68Zm.65,5.48c1.55.5,3.5.45,4.08-1.37.37-1.15-.1-2.1-.92-2.89l1.56-3.06c2.18,1.63,2.87,4.22,2.05,6.8-1.22,3.81-4.67,5.27-8.39,4.08-3.73-1.2-6.03-4.11-4.75-8.09,1.29-4.03,4.84-4.88,8.55-3.7l.43.13-2.59,8.09Z"/>
    </g>
    <rect class="cls-23" x="29.64" y="134.11" width="3.68" height="22.29" transform="translate(-116.47 131.05) rotate(-72.29)"/>
    <g class="cls-1">
      <path class="cls-23" d="m32.25,137.05l6.66,2.13c1.4.45,3.15.76,3.72-1.02.57-1.78-1.04-2.54-2.44-2.98l-6.66-2.13,1.12-3.51,7.24,2.31c3.58,1.14,4.86,3.59,3.69,7.25-1.17,3.65-3.63,4.91-7.22,3.76l-7.24-2.31,1.12-3.51Z"/>
    </g>
    <polygon class="cls-23" points="48.98 127.07 47.86 130.58 38.52 127.59 38.14 128.79 35.19 127.85 35.57 126.65 31.41 125.32 32.53 121.81 36.69 123.14 37.38 120.99 40.33 121.94 39.64 124.09 48.98 127.07"/>
    <g class="cls-11">
      <path class="cls-23" d="m44.6,114.05c-1.31-.22-2.79.18-3.22,1.54-.45,1.4.5,2.56,1.73,3.14l1.5-4.68Zm.65,5.48c1.55.5,3.49.45,4.08-1.37.37-1.16-.1-2.11-.92-2.89l1.56-3.06c2.18,1.63,2.87,4.22,2.05,6.81-1.22,3.8-4.67,5.27-8.39,4.08-3.73-1.2-6.03-4.11-4.76-8.09,1.29-4.03,4.84-4.88,8.55-3.7l.42.14-2.58,8.09Zm-10.33-9.9l2.55,4.98-1.67,1.43-3.25-4.35,2.37-2.06Z"/>
      <path class="cls-23" d="m50.49,101.11c-1.65-.53-3.79.03-4.37,1.83-.58,1.8.85,3.47,2.5,4,1.65.53,3.81,0,4.38-1.8.58-1.8-.87-3.51-2.52-4.03m7.15-1.14l-1.1,3.46-1.13-.37v.05c.72,1.06.86,2.54.45,3.82-1.15,3.6-5.09,4.61-8.42,3.55-3.26-1.04-5.82-4.15-4.69-7.68.41-1.28,1.38-2.4,2.65-2.93l-1.16-.37,1.11-3.46,12.29,3.93Z"/>
    </g>
    <rect class="cls-23" x="46.56" y="81.15" width="3.68" height="22.28" transform="translate(-54.25 110.2) rotate(-72.22)"/>
    <g class="cls-3">
      <path class="cls-23" d="m55.04,81.35c-1.31-.23-2.79.18-3.22,1.53-.45,1.4.5,2.56,1.73,3.15l1.49-4.68Zm.65,5.48c1.55.5,3.5.45,4.08-1.37.37-1.15-.1-2.1-.92-2.89l1.56-3.06c2.18,1.64,2.87,4.23,2.05,6.81-1.22,3.8-4.66,5.27-8.39,4.08-3.73-1.2-6.03-4.11-4.76-8.09,1.29-4.03,4.84-4.88,8.55-3.7l.42.14-2.58,8.09Z"/>
    </g>
    <polygon class="cls-23" points="36.22 205.24 34.95 203.79 35.94 200.71 49.67 205.1 49.15 206.74 36.98 202.85 36.22 205.24"/>
    <g class="cls-7">
      <path class="cls-23" d="m44.82,196.53c1.9.61,5.86,1.11,6.65-1.35.78-2.46-2.75-4.35-4.64-4.96-1.9-.61-5.9-1.12-6.69,1.33-.78,2.46,2.78,4.36,4.67,4.97m-.51,1.65c-2.82-.9-6.76-3.53-5.62-7.08,1.13-3.55,5.86-3.4,8.69-2.5,2.81.9,6.76,3.54,5.63,7.08-1.13,3.53-5.89,3.4-8.69,2.5"/>
      <path class="cls-23" d="m54.23,176.13c-1.65-.53-3.38.03-3.94,1.79-.54,1.69.61,3.17,2.19,3.67,1.61.51,3.41.03,3.96-1.7.57-1.78-.54-3.22-2.21-3.76m4.76-.19l-.52,1.64-1.33-.42v.04c.75.96,1.08,2.19.69,3.42-.83,2.6-3.47,3.39-5.91,2.6-2.33-.74-3.96-2.97-3.18-5.45.4-1.25,1.38-2.06,2.62-2.41v-.04s-1.4-.45-1.4-.45l.52-1.64,8.52,2.73Zm-14.87.45l3.75-1.31.23.95-3.67,2.12-.32-1.77Z"/>
    </g>
    <polygon class="cls-23" points="49.54 163.56 48.27 162.12 49.25 159.04 62.99 163.43 62.47 165.07 50.3 161.18 49.54 163.56"/>
    <g class="cls-21">
      <path class="cls-23" d="m62.92,149.69c-1.71-.55-3.42.51-3.88,1.97-.48,1.49.43,3.35,1.93,3.83,1.58.51,3.32-.42,3.83-1.99.49-1.53-.35-3.32-1.87-3.81m-9.16-2.87l3.78,5.24.05-.03c-.08-.46-.05-.96.11-1.45.72-2.26,3.36-3.3,5.56-2.6,2.52.8,3.87,3.48,3.07,5.98-.75,2.37-3.43,3.94-5.85,3.17-1.39-.44-2.33-1.5-3.15-2.65l-4.8-6.69,1.24-.97Z"/>
      <path class="cls-23" d="m75.27,141.83l-.52,1.64-13.41-4.29.53-1.64,13.4,4.29Zm-17.21-5.84c.62.2.95.87.75,1.49-.2.62-.86.97-1.48.77-.63-.2-.99-.87-.78-1.49s.87-.97,1.51-.76"/>
      <path class="cls-23" d="m67.27,135.42c1.61.51,3.38-.34,3.9-1.96.52-1.62-.43-3.35-2.03-3.87-1.62-.52-3.39.34-3.9,1.97-.52,1.62.41,3.34,2.04,3.86m2.39-7.47c2.57.82,3.89,3.45,3.08,6-.81,2.55-3.42,3.92-5.99,3.1-2.57-.82-3.89-3.45-3.08-6,.82-2.55,3.43-3.92,5.99-3.1"/>
      <path class="cls-23" d="m66.35,123.53l4.72,1.51c1.36.44,2.67.47,3.19-1.15.52-1.62-.58-2.35-1.94-2.79l-4.71-1.51.52-1.64,4.9,1.57c2.33.74,3.56,2.35,2.76,4.86-.8,2.51-2.74,3.1-5.07,2.35l-4.9-1.57.52-1.64Z"/>
      <path class="cls-23" d="m70.76,114.48l.02-.05c-.87-.72-1.24-1.77-.89-2.86.15-.47.47-.89.85-1.21l1.26,1.23c-.35.21-.54.51-.66.89-.57,1.77,1,2.51,2.39,2.95l4.19,1.34-.52,1.64-8.52-2.73.52-1.64,1.38.44Z"/>
      <path class="cls-23" d="m73.91,106.6c-.48.07-.94.38-1.09.85-.15.45.08,1.01.55,1.16.75.24,1.39-.64,2.17-1.5.77-.86,1.7-1.62,3.05-1.19,1.62.52,2.39,2.25,1.88,3.84-.39,1.24-1.5,2.27-2.85,2.34l-.19-1.61c.74-.14,1.34-.42,1.59-1.2.22-.69-.06-1.44-.79-1.68-.45-.14-.74,0-1.12.31l-1.37,1.32c-.82.78-1.51,1.32-2.68.95-1.38-.44-2.11-1.92-1.67-3.31.33-1.03,1.17-1.69,2.24-1.85l.29,1.56Z"/>
      <path class="cls-24" d="m435.93,454.87l.44-.65c1.3-1.88,1.59-3.18-.53-4.64-2.1-1.45-3.24-.44-4.46,1.33l-.39.56,4.94,3.4Zm8.75,6.02l-2.19,3.18-16.32-11.23,2.98-4.33c2.35-3.42,5.25-4.71,8.96-2.16,3.47,2.38,3.85,5.43,1.56,8.76l-1.09,1.58,6.11,4.2Z"/>
      <path class="cls-24" d="m434.03,437.05l8.62,5.93.03-.04c-.44-1.23-.08-2.54.67-3.62,1.97-2.86,4.55-2.29,7.02-.59l6.49,4.46-2.08,3.03-5.63-3.88c-1.28-.88-2.88-2.07-4.06-.36-1.24,1.8.76,3.2,2.04,4.08l5.26,3.62-2.09,3.03-18.36-12.64,2.09-3.03Z"/>
      <path class="cls-24" d="m458.1,429.99c-1.43-.98-3.63-1.07-4.71.5-1.07,1.56-.19,3.57,1.24,4.55,1.43.99,3.64,1.11,4.72-.45,1.07-1.56.18-3.6-1.24-4.59m7.17.98l-2.06,2.99-.97-.67-.03.04c.4,1.23.1,2.68-.66,3.79-2.15,3.12-6.2,2.94-9.08.95-2.81-1.94-4.37-5.65-2.27-8.71.76-1.11,2.01-1.9,3.39-2.04l-1-.69,2.06-2.99,10.63,7.31Z"/>
      <path class="cls-24" d="m462.42,417.73c-.7.15-1.42.49-1.84,1.09-.34.5-.29,1.27.23,1.62.78.54,1.75-.41,2.97-1.17,1.24-.78,2.72-1.35,4.56-.08,2.36,1.63,2.46,4.5.92,6.73-.98,1.43-2.59,2.37-4.35,2.52l-.85-2.62c1.05-.14,2.18-.51,2.79-1.4.46-.67.37-1.53-.32-2-.93-.64-1.87.27-3.06,1.02-1.18.74-2.54,1.37-4.25.2-1.99-1.37-2.49-3.76-1.12-5.75.78-1.12,2.11-2.31,3.46-2.66l.86,2.51Z"/>
      <path class="cls-24" d="m470.72,408.69c-1.19-.59-2.73-.62-3.53.54-.83,1.21-.26,2.6.74,3.51l2.79-4.05Zm-.97,5.43c1.34.92,3.22,1.45,4.3-.13.69-.99.51-2.04-.05-3.03l2.38-2.48c1.61,2.2,1.53,4.88-.01,7.11-2.26,3.29-5.99,3.7-9.21,1.48-3.22-2.22-4.58-5.67-2.22-9.12,2.4-3.49,6.05-3.27,9.25-1.07l.37.25-4.81,6.99Z"/>
      <path class="cls-24" d="m486.83,399.64l-2.09,3.03-8.07-5.56-.7,1.02-2.56-1.76.7-1.01-3.12-2.15c-2.6-1.79-4.13-4.43-2.11-7.36.34-.5.79-.92,1.34-1.21l2.71,1.86c-.46.25-.91.53-1.22.98-.92,1.34.93,2.4,1.8,2.99l2.68,1.85,1.67-2.43,2.55,1.76-1.67,2.43,8.08,5.56Z"/>
      <path class="cls-24" d="m485.5,390.22c1.44.98,3.63,1.09,4.7-.47,1.07-1.56.19-3.57-1.24-4.55-1.47-1.01-3.64-1.1-4.71.46-1.07,1.56-.21,3.55,1.25,4.57m5.57-8.1c3.29,2.27,4.1,6.14,1.81,9.47-2.29,3.34-6.2,3.96-9.5,1.7-3.31-2.28-4.11-6.18-1.83-9.49,2.28-3.31,6.2-3.96,9.52-1.68"/>
    </g>
    <rect class="cls-24" x="487.39" y="365.36" width="3.68" height="22.28" transform="translate(-98.41 565.65) rotate(-55.42)"/>
    <rect class="cls-24" x="490.95" y="360.18" width="3.68" height="22.29" transform="translate(-92.47 566.75) rotate(-55.46)"/>
    <g class="cls-4">
      <path class="cls-24" d="m506.68,370.8l-2.08,3.03-10.63-7.31,2.08-3.03,10.63,7.31Zm-14.89-10.66c.99.69,1.24,2.03.56,3.03-.68.99-2.03,1.25-3.03.56-.98-.67-1.25-2.04-.56-3.04.68-.99,2.06-1.23,3.03-.56"/>
      <path class="cls-24" d="m505.86,356.19c-1.09.21-1.94.58-2.58,1.52-1.18,1.71-.24,3.79,1.32,4.86,1.66,1.15,3.78,1.04,4.97-.7.57-.82.67-1.86.44-2.82l2.92,2.01c-.11,1.13-.51,2.13-1.15,3.06-2.16,3.14-6.28,3.59-9.33,1.5-3.16-2.18-4.1-6.24-1.9-9.44.58-.84,1.41-1.58,2.37-2.01l2.92,2.01Z"/>
      <path class="cls-24" d="m505.95,349.1l5.76,3.96c1.21.83,2.8,1.64,3.86.1,1.06-1.53-.26-2.73-1.47-3.56l-5.76-3.96,2.08-3.03,6.26,4.3c3.1,2.13,3.62,4.85,1.45,8.01-2.18,3.16-4.9,3.64-8,1.51l-6.26-4.31,2.09-3.03Z"/>
    </g>
    <rect class="cls-24" x="512.54" y="328.81" width="3.68" height="22.28" transform="translate(-57.44 570.55) rotate(-55.42)"/>
    <g class="cls-10">
      <path class="cls-24" d="m525.82,331.58c-1.43-.98-3.63-1.07-4.71.5-1.07,1.56-.19,3.57,1.24,4.55,1.42.99,3.64,1.11,4.71-.45,1.07-1.56.18-3.6-1.24-4.59m7.17.98l-2.06,2.99-.98-.67-.03.04c.4,1.23.1,2.68-.66,3.79-2.15,3.12-6.2,2.94-9.08.96-2.81-1.94-4.37-5.66-2.27-8.71.76-1.11,2.01-1.9,3.39-2.04l-1-.69,2.06-2.99,10.63,7.31Z"/>
      <path class="cls-24" d="m536.7,327.18l-2.09,3.03-10.63-7.32,2.09-3.03,10.63,7.31Zm-14.9-10.66c.99.69,1.24,2.04.56,3.03-.68.99-2.03,1.24-3.03.56-.98-.67-1.25-2.03-.57-3.03.69-1,2.06-1.24,3.04-.56"/>
      <path class="cls-24" d="m530.84,315.3l.03-.04c-.51-1.25-.41-2.52.37-3.64.3-.43.7-.79,1.13-1.07l2.56,2.3c-.52.19-.94.54-1.25.99-1.45,2.1.26,3.6,1.91,4.73l4.78,3.29-2.08,3.03-10.63-7.32,2.08-3.03,1.11.76Z"/>
      <path class="cls-24" d="m541.57,305.73c-1.19-.59-2.72-.62-3.53.54-.83,1.21-.26,2.6.74,3.51l2.79-4.05Zm-.96,5.43c1.34.92,3.22,1.45,4.3-.13.69-.99.51-2.04-.05-3.03l2.38-2.48c1.61,2.2,1.52,4.88-.01,7.11-2.26,3.29-5.99,3.7-9.21,1.48-3.22-2.22-4.58-5.67-2.22-9.12,2.4-3.49,6.05-3.27,9.25-1.07l.37.25-4.81,6.99Z"/>
    </g>
    <polygon class="cls-24" points="479.34 431.06 478.55 429.31 480.38 426.65 492.25 434.82 491.28 436.24 480.76 428.99 479.34 431.06"/>
    <g class="cls-15">
      <path class="cls-24" d="m490.87,422.06c.88-1.28,1.13-2.66-.3-3.64-1.2-.83-2.64-.52-3.45.66-.74,1.07-.57,2.27.34,3.14l-1.01,1.46c-1.76-1.63-1.94-3.59-.6-5.54,1.3-1.89,3.58-2.6,5.56-1.23,1.16.8,1.77,1.95,1.64,3.35,1.35-.78,2.83-.54,4.11.34,2.22,1.53,2.41,4.13.94,6.25-1.28,1.86-3.66,2.68-5.67,1.44l.99-1.44c1.26.66,2.69.14,3.47-1,.91-1.32.52-2.98-.77-3.87-1.51-1.04-3.13-.62-4.02.92l-1.23-.84Z"/>
      <path class="cls-24" d="m505,408.41c-1.43-.99-3.24-.95-4.29.58-1.01,1.47-.33,3.21,1.04,4.15,1.39.95,3.25,1.01,4.28-.49,1.06-1.54.42-3.24-1.03-4.24m4.61,1.2l-.98,1.42-1.16-.79-.02.03c.45,1.15.41,2.42-.32,3.47-1.55,2.25-4.3,2.23-6.42.78-2.02-1.39-2.93-4-1.46-6.14.75-1.09,1.92-1.58,3.2-1.56l.02-.03-1.23-.84.98-1.42,7.38,5.07Zm-14.37-3.88l3.97-.17-.05.99-4.13.97.21-1.78Z"/>
    </g>
    <polygon class="cls-24" points="506.25 398.7 507.4 397.03 510.98 396.92 509.91 393.38 511.09 391.66 512.6 396.69 518.78 396.28 517.64 397.93 512.98 398.3 514.36 402.7 513.17 404.42 511.44 398.37 506.25 398.7"/>
    <g class="cls-5">
      <path class="cls-24" d="m527.84,392.15l-.98,1.42-11.6-7.98.98-1.41,11.6,7.97Zm-14.78-10.57c.54.37.66,1.1.29,1.64-.37.54-1.1.69-1.63.32-.55-.38-.69-1.12-.32-1.66.37-.54,1.11-.67,1.66-.29"/>
      <path class="cls-24" d="m522.02,383.7c1.39.95,3.34.65,4.3-.75.97-1.4.56-3.33-.83-4.29-1.4-.96-3.34-.65-4.3.75-.96,1.4-.57,3.32.83,4.29m4.45-6.46c2.22,1.53,2.73,4.43,1.21,6.64-1.52,2.21-4.41,2.77-6.63,1.24-2.22-1.53-2.73-4.43-1.21-6.64,1.52-2.21,4.41-2.77,6.63-1.24"/>
      <path class="cls-24" d="m524.58,372.06l4.08,2.81c1.18.81,2.43,1.23,3.39-.17.96-1.4.13-2.42-1.05-3.23l-4.08-2.81.98-1.42,4.24,2.92c2.02,1.39,2.74,3.28,1.24,5.45-1.49,2.17-3.52,2.17-5.53.78l-4.24-2.92.98-1.41Z"/>
      <path class="cls-24" d="m531.43,364.67l.03-.05c-.62-.94-.68-2.04-.03-2.99.28-.41.7-.72,1.16-.91l.85,1.53c-.39.1-.67.33-.9.66-1.05,1.53.24,2.69,1.43,3.52l3.63,2.49-.97,1.41-7.38-5.07.98-1.42,1.2.83Z"/>
      <path class="cls-24" d="m536.72,358.03c-.48-.08-1.01.09-1.29.5-.27.39-.22.99.19,1.27.65.44,1.52-.21,2.5-.81.99-.59,2.11-1.06,3.27-.26,1.4.97,1.64,2.85.7,4.22-.74,1.07-2.1,1.73-3.41,1.41l.28-1.59c.76.08,1.4-.01,1.86-.69.41-.6.36-1.4-.27-1.83-.39-.27-.71-.21-1.16-.04l-1.69.88c-1,.52-1.82.83-2.83.14-1.2-.83-1.48-2.45-.65-3.65.62-.9,1.6-1.28,2.67-1.13l-.17,1.57Z"/>
      <path class="cls-26" d="m215.71,464.51c-3.64-.3-6.06,2.74-6.32,5.94-.25,3.04.96,6.91,5.23,7.26,4.26.35,6.1-3.26,6.35-6.3.26-3.19-1.62-6.6-5.26-6.9m-1.4,17c-6.03-.5-9.39-5.41-8.91-11.23.49-5.87,4.74-10.05,10.63-9.57,5.89.49,9.39,5.31,8.91,11.18-.48,5.81-4.61,10.12-10.63,9.62"/>
    </g>
    <polygon class="cls-26" points="231.64 476.77 234.89 469.73 238.89 470.06 231.89 482.7 230.01 482.54 225.19 468.93 229.23 469.27 231.64 476.77"/>
    <g class="cls-6">
      <path class="cls-26" d="m243.36,470.43l-.58,6.97c-.12,1.47-.03,3.24,1.83,3.39,1.86.16,2.24-1.58,2.36-3.05l.58-6.97,3.67.3-.62,7.57c-.31,3.74-2.41,5.55-6.23,5.23-3.82-.32-5.6-2.44-5.29-6.19l.62-7.57,3.67.3Z"/>
    </g>
    <rect class="cls-26" x="244.34" y="471.36" width="22.29" height="3.68" transform="translate(-237.17 688.8) rotate(-85.27)"/>
    <g class="cls-22">
      <path class="cls-26" d="m268.43,478.97c.14-1.73-.88-3.69-2.77-3.84-1.89-.16-3.19,1.61-3.34,3.34-.14,1.73.85,3.71,2.74,3.86s3.22-1.63,3.36-3.36m2.72,6.71l-3.61-.29.1-1.18h-.05c-.87.95-2.28,1.41-3.62,1.31-3.77-.31-5.63-3.92-5.35-7.41.28-3.4,2.74-6.6,6.43-6.3,1.34.11,2.65.8,3.46,1.92l.1-1.2,3.61.29-1.06,12.86Z"/>
    </g>
    <polygon class="cls-26" points="275.31 473.07 274.06 472.97 273.8 476.06 275.06 476.16 274.25 485.93 277.92 486.23 278.72 476.47 280.98 476.65 281.23 473.56 278.98 473.37 279.34 469.03 275.67 468.72 275.31 473.07"/>
    <g class="cls-13">
      <path class="cls-26" d="m286.69,468.58c-.1,1.2-1.15,2.1-2.36,1.99-1.2-.1-2.09-1.15-1.99-2.35.09-1.18,1.15-2.09,2.35-1.99,1.21.1,2.09,1.17,2,2.35m-1.85,18.23l-3.67-.3,1.06-12.86,3.67.3-1.06,12.86Z"/>
      <path class="cls-26" d="m290.98,480.86c-.14,1.73.86,3.68,2.74,3.84,1.89.16,3.19-1.61,3.34-3.34.15-1.78-.86-3.71-2.74-3.87-1.88-.16-3.19,1.58-3.34,3.37m9.8.81c-.33,3.98-3.29,6.61-7.32,6.28-4.04-.33-6.52-3.41-6.19-7.39.33-4.01,3.32-6.64,7.32-6.31,4.01.33,6.52,3.41,6.19,7.42"/>
      <path class="cls-26" d="m306.62,476.85h.05c.86-1.09,2.18-1.42,3.48-1.32,3.46.29,4.25,2.8,4.01,5.79l-.65,7.86-3.67-.3.56-6.81c.13-1.55.37-3.53-1.69-3.7-2.18-.18-2.4,2.26-2.53,3.8l-.53,6.36-3.67-.3,1.07-12.86,3.66.3-.09,1.18Z"/>
    </g>
    <polygon class="cls-23" points="199.31 216.34 207.12 216.34 207.12 221.15 193.78 221.15 193.78 192.8 199.31 192.8 199.31 216.34"/>
    <polygon class="cls-23" points="214.42 197.61 214.42 203.85 223.22 203.85 223.22 208.67 214.42 208.67 214.42 216.34 223.55 216.34 223.55 221.15 208.89 221.15 208.89 192.8 223.55 192.8 223.55 197.61 214.42 197.61"/>
    <g class="cls-12">
      <path class="cls-23" d="m240.59,199.04c-1.05-1.43-2.41-2.33-4.25-2.33s-3.46,1.35-3.46,3.19c0,4.78,11.24,2.78,11.24,12.3,0,5.68-3.53,9.7-9.32,9.7-3.91,0-6.77-2.26-8.73-5.53l3.58-3.49c.75,2.18,2.74,4.13,5.11,4.13s3.65-1.92,3.65-4.1c0-2.93-2.71-3.76-4.92-4.62-3.65-1.5-6.32-3.34-6.32-7.75,0-4.7,3.5-8.5,8.27-8.5,2.52,0,6.02,1.24,7.74,3.16l-2.59,3.83Z"/>
      <path class="cls-23" d="m263.4,205.96h1.13c3.27,0,5.04-.72,5.04-4.4s-2.1-4.17-5.19-4.17h-.98v8.58Zm0,15.19h-5.53v-28.35h7.52c5.94,0,9.81,2.37,9.81,8.8,0,6.02-3.27,8.95-9.06,8.95h-2.74v10.61Z"/>
    </g>
    <polygon class="cls-23" points="293.48 203.97 293.48 192.8 299.01 192.8 299.01 221.15 293.48 221.15 293.48 208.48 283.25 208.48 283.25 221.15 277.72 221.15 277.72 192.8 283.25 192.8 283.25 203.97 293.48 203.97"/>
    <path class="cls-23" d="m313.63,200.36h-.08l-3.12,10.31h6.73l-3.53-10.31Zm-4.78,14.82l-2.33,5.98h-5.83l11.06-29.11h4.29l10.75,29.11h-5.9l-2.18-5.98h-9.85Z"/>
    <g class="cls-18">
      <path class="cls-23" d="m341.83,199.04c-1.05-1.43-2.41-2.33-4.25-2.33s-3.46,1.35-3.46,3.19c0,4.78,11.24,2.78,11.24,12.3,0,5.68-3.53,9.7-9.32,9.7-3.91,0-6.77-2.26-8.73-5.53l3.57-3.49c.75,2.18,2.75,4.13,5.12,4.13s3.65-1.92,3.65-4.1c0-2.93-2.71-3.76-4.93-4.62-3.64-1.5-6.32-3.34-6.32-7.75,0-4.7,3.5-8.5,8.27-8.5,2.52,0,6.02,1.24,7.74,3.16l-2.59,3.83Z"/>
    </g>
    <polygon class="cls-23" points="353.78 197.61 353.78 203.85 362.58 203.85 362.58 208.67 353.78 208.67 353.78 216.34 362.92 216.34 362.92 221.15 348.25 221.15 348.25 192.8 362.92 192.8 362.92 197.61 353.78 197.61"/>
    <g class="cls-8">
      <path class="cls-23" d="m379.94,199.04c-1.05-1.43-2.41-2.33-4.25-2.33s-3.46,1.35-3.46,3.19c0,4.78,11.24,2.78,11.24,12.3,0,5.68-3.53,9.7-9.32,9.7-3.92,0-6.77-2.26-8.73-5.53l3.57-3.49c.75,2.18,2.75,4.13,5.12,4.13s3.65-1.92,3.65-4.1c0-2.93-2.71-3.76-4.93-4.62-3.64-1.5-6.32-3.34-6.32-7.75,0-4.7,3.5-8.5,8.27-8.5,2.52,0,6.02,1.24,7.74,3.16l-2.59,3.83Z"/>
      <path class="cls-23" d="m215.26,255.43h.91c6.8,0,9.43-3.76,9.43-9.36,0-6.16-3.16-9.36-9.43-9.36h-.91v18.72Zm-5.53-23.54h7.89c8.2,0,13.69,6.13,13.69,14.21s-5.64,14.14-13.72,14.14h-7.86v-28.35Z"/>
      <path class="cls-23" d="m233.87,231.9h5.53v15.87c0,3.5.3,8.42,5,8.42s5-4.92,5-8.42v-15.87h5.53v16.96c0,6.92-2.93,12.14-10.53,12.14s-10.53-5.22-10.53-12.14v-16.96Z"/>
      <path class="cls-23" d="m288.65,239.42c-1.54-1.88-3.88-3.01-6.24-3.01-5.3,0-8.34,4.89-8.34,9.78s3.16,9.55,8.31,9.55c2.37,0,4.74-1.24,6.28-3.01v6.58c-2.07.98-4.14,1.69-6.43,1.69-7.97,0-13.87-6.88-13.87-14.7s5.68-15.15,13.99-15.15c2.22,0,4.4.6,6.32,1.65v6.62Z"/>
    </g>
    <polygon class="cls-23" points="289.66 231.9 296.09 231.9 301.05 241.75 306.47 231.9 312.93 231.9 303.99 247.24 303.99 260.25 298.46 260.25 298.46 247.24 289.66 231.9"/>
    <g class="cls-16">
      <path class="cls-23" d="m333.31,239.42c-1.54-1.88-3.88-3.01-6.24-3.01-5.3,0-8.34,4.89-8.34,9.78s3.16,9.55,8.31,9.55c2.37,0,4.74-1.24,6.28-3.01v6.58c-2.07.98-4.14,1.69-6.43,1.69-7.97,0-13.87-6.88-13.87-14.7s5.68-15.15,13.99-15.15c2.22,0,4.4.6,6.32,1.65v6.62Z"/>
    </g>
    <polygon class="cls-23" points="342.48 255.43 350.3 255.43 350.3 260.25 336.96 260.25 336.96 231.9 342.48 231.9 342.48 255.43"/>
    <polygon class="cls-23" points="357.59 236.71 357.59 242.95 366.39 242.95 366.39 247.77 357.59 247.77 357.59 255.43 366.73 255.43 366.73 260.25 352.06 260.25 352.06 231.9 366.73 231.9 366.73 236.71 357.59 236.71"/>
  </g>
</svg>