<?xml version="1.0" encoding="UTF-8"?>
<svg id="Calque_2" data-name="Calque 2" xmlns="http://www.w3.org/2000/svg" viewBox="0 0 38.98 61.33">
  <defs>
    <style>
      .cls-1 {
        fill: #e50695;
      }
    </style>
  </defs>
  <g id="Calque_2-2" data-name="Calque 2">
    <path class="cls-1" d="m11.3,47.33h14.51v14h-14.51v-14ZM0,2.49C2.98,1.59,5.97.95,8.96.57c3-.38,6.05-.57,9.17-.57,1.57,0,3.19.1,4.83.32,1.65.21,3.24.56,4.79,1.03,1.54.48,3,1.1,4.36,1.86,1.36.76,2.56,1.68,3.59,2.77,1.03,1.08,1.83,2.33,2.4,3.73.58,1.41.86,3.01.86,4.81,0,1.94-.33,3.68-.99,5.21-.66,1.54-1.48,2.95-2.47,4.26-.99,1.31-2.07,2.56-3.25,3.77-1.18,1.21-2.29,2.47-3.33,3.77-1.04,1.31-1.94,2.72-2.7,4.22-.76,1.5-1.21,3.21-1.35,5.12h-12.61c0-2.75.58-5.16,1.73-7.21.56-1.04,1.17-2.03,1.81-2.95s1.32-1.83,2.03-2.7c.7-.87,1.38-1.73,2.02-2.57.65-.84,1.25-1.67,1.81-2.49,1.15-1.66,1.73-3.43,1.73-5.32,0-1.1-.29-2.04-.89-2.82-.59-.79-1.35-1.44-2.27-1.94-.93-.51-1.96-.88-3.08-1.12-1.13-.24-2.21-.36-3.25-.36-4.87,0-9.39,1.07-13.58,3.2L0,2.49Z"/>
  </g>
</svg>