<?xml version="1.0" encoding="UTF-8"?>
<svg id="Layer_2" data-name="Layer 2" xmlns="http://www.w3.org/2000/svg" viewBox="0 0 111.65 149.58">
  <defs>
    <style>
      .cls-1 {
        fill: #e50695;
        stroke-width: 0px;
      }
    </style>
  </defs>
  <g id="Calque_2" data-name="Calque 2">
    <g>
      <path class="cls-1" d="m74.44,61.2s0-.07,0-.11c.02.01.05.03.07.04-.02.02-.04.05-.07.07m.35-6.91c-.06-.03-.11-.05-.16-.06.04-.06.09-.12.14-.18,0,0,0,0,.02.01v.23Zm-33.37-9.14c-1.54,1.91-2.87,3.99-3.66,6.31-2.04,6.03-.28,12.99,3.6,17.89,7.41,9.38,22.84,9.22,30.07-.24,3.14-4.11,4.61-9.47,3.96-14.61-.67-5.31-4.06-10.1-7.52-14.06-1.73-1.98-3.6-3.83-5.53-5.61-.99-.92-2.01-1.82-3.02-2.72-.7-.62-1.54-1.73-2.55-1.79-1.28-.08-2.69,1.78-3.53,2.58-2.99,2.83-5.85,5.8-8.71,8.77-1.06,1.1-2.12,2.25-3.11,3.47"/>
      <path class="cls-1" d="m9.57,55.82c0-25.54,20.71-46.25,46.25-46.25s46.25,20.71,46.25,46.25-20.71,46.25-46.25,46.25S9.57,81.36,9.57,55.82m102.07,0C111.65,24.86,86.43-.22,55.41,0,24.73.22-.2,25.51,0,56.19c.19,28.97,22.45,52.7,50.81,55.23v12.5c0,1.32-1.08,2.4-2.4,2.4h-10.94c-1.32,0-2.4,1.08-2.4,2.4v7.01c0,1.32,1.08,2.4,2.4,2.4h10.94c1.32,0,2.4,1.07,2.4,2.4v6.65c0,1.32,1.07,2.4,2.4,2.4h7.01c1.32,0,2.4-1.07,2.4-2.4v-6.65c0-1.33,1.08-2.4,2.4-2.4h10.94c1.33,0,2.4-1.08,2.4-2.4v-7.01c0-1.32-1.07-2.4-2.4-2.4h-10.94c-1.32,0-2.4-1.07-2.4-2.4v-12.69c27.62-3.35,49.02-26.88,49.02-55.41"/>
    </g>
  </g>
</svg>