<?xml version="1.0" encoding="UTF-8"?>
<svg id="Calque_2" data-name="Calque 2" xmlns="http://www.w3.org/2000/svg" viewBox="0 0 104.85 140.47">
  <defs>
    <style>
      .cls-1 {
        fill: #e50695;
      }
    </style>
  </defs>
  <g id="Calque_2-2" data-name="Calque 2">
    <g>
      <path class="cls-1" d="m69.91,57.48s0-.07,0-.1c.02.01.04.03.07.04-.02.02-.04.04-.06.06m.33-6.48c-.06-.02-.11-.04-.15-.06.03-.06.08-.11.13-.17,0,0,.01,0,.01.01,0,.07,0,.14,0,.21m-31.34-8.58c-1.45,1.79-2.7,3.75-3.44,5.93-1.91,5.66-.26,12.2,3.38,16.81,6.96,8.81,21.45,8.66,28.24-.23,2.95-3.86,4.33-8.89,3.72-13.72-.63-4.99-3.81-9.49-7.06-13.2-1.63-1.86-3.38-3.59-5.2-5.27-.93-.86-1.88-1.71-2.84-2.55-.66-.58-1.45-1.63-2.4-1.68-1.2-.07-2.52,1.67-3.32,2.42-2.81,2.66-5.5,5.44-8.18,8.23-.99,1.04-1.99,2.11-2.92,3.26"/>
      <path class="cls-1" d="m9,52.42c0-23.98,19.44-43.43,43.43-43.43s43.43,19.45,43.43,43.43-19.44,43.43-43.43,43.43S9,76.41,9,52.42m95.85,0C104.85,23.34,81.17-.21,52.04,0,23.22.21-.18,23.95,0,52.77c.18,27.21,21.08,49.49,47.72,51.86v11.74c0,1.24-1.01,2.25-2.25,2.25h-10.28c-1.24,0-2.25,1.01-2.25,2.25v6.58c0,1.24,1.01,2.25,2.25,2.25h10.28c1.24,0,2.25,1.01,2.25,2.25v6.25c0,1.24,1.01,2.25,2.25,2.25h6.58c1.24,0,2.25-1.01,2.25-2.25v-6.25c0-1.24,1.01-2.25,2.25-2.25h10.28c1.24,0,2.25-1.01,2.25-2.25v-6.58c0-1.24-1.01-2.25-2.25-2.25h-10.28c-1.24,0-2.25-1.01-2.25-2.25v-11.91c25.94-3.15,46.04-25.24,46.04-52.04"/>
    </g>
  </g>
</svg>