<?xml version="1.0" encoding="UTF-8"?>
<svg id="Calque_2" data-name="Calque 2" xmlns="http://www.w3.org/2000/svg" viewBox="0 0 92.84 12.94">
  <defs>
    <style>
      .cls-1 {
        fill: #df0f82;
      }
    </style>
  </defs>
  <g id="Calque_1-2" data-name="Calque 1">
    <g>
      <path class="cls-1" d="m3.15,5.97h.53c1.14,0,2.27,0,2.27-1.48s-1.05-1.54-2.27-1.54h-.53v3.03ZM0,.4h4.83c2.61,0,4.41,1.21,4.41,3.99s-1.55,4.12-4.3,4.12h-1.79v4.02H0V.4Z"/>
      <path class="cls-1" d="m12.99,5.84h.31c1.03,0,2.19-.19,2.19-1.51s-1.16-1.51-2.19-1.51h-.31v3.03Zm6.94,6.69h-3.93l-2.98-4.67h-.03v4.67h-3.15V.4h4.71c2.4,0,4.22,1.14,4.22,3.73,0,1.67-.93,3.12-2.66,3.43l3.81,4.97Z"/>
      <path class="cls-1" d="m22.64,6.26c0,2.09,1.54,3.62,3.43,3.62s3.43-1.53,3.43-3.62c0-1.67-1.55-3.2-3.43-3.2s-3.43,1.53-3.43,3.2m10.14-.02c0,3.93-2.82,6.7-6.71,6.7s-6.71-2.77-6.71-6.7c0-3.67,3.22-6.24,6.71-6.24s6.71,2.58,6.71,6.24"/>
      <path class="cls-1" d="m36.59,5.97h.53c1.14,0,2.27,0,2.27-1.48s-1.05-1.54-2.27-1.54h-.53v3.03Zm-3.15-5.57h4.83c2.61,0,4.41,1.21,4.41,3.99s-1.55,4.12-4.3,4.12h-1.79v4.02h-3.15V.4Z"/>
    </g>
    <polygon class="cls-1" points="46.42 3.07 46.42 5.1 49.98 5.1 49.98 7.77 46.42 7.77 46.42 9.87 50.17 9.87 50.17 12.54 43.27 12.54 43.27 .4 50.17 .4 50.17 3.07 46.42 3.07"/>
    <path class="cls-1" d="m54.47,5.84h.31c1.03,0,2.19-.19,2.19-1.51s-1.16-1.51-2.19-1.51h-.31v3.03Zm6.94,6.69h-3.93l-2.98-4.67h-.03v4.67h-3.15V.4h4.72c2.4,0,4.22,1.14,4.22,3.73,0,1.67-.93,3.12-2.65,3.43l3.81,4.97Z"/>
    <rect class="cls-1" x="61.45" y=".4" width="3.15" height="12.14"/>
    <g>
      <path class="cls-1" d="m68.53,6.26c0,2.09,1.54,3.62,3.43,3.62s3.43-1.53,3.43-3.62c0-1.67-1.54-3.2-3.43-3.2s-3.43,1.53-3.43,3.2m10.14-.02c0,3.93-2.82,6.7-6.71,6.7s-6.71-2.77-6.71-6.7c0-3.67,3.22-6.24,6.71-6.24s6.71,2.58,6.71,6.24"/>
      <path class="cls-1" d="m82.49,9.87h.71c1.88,0,3.49-1.03,3.49-3.39,0-2.17-1.43-3.4-3.46-3.4h-.74v6.79Zm-3.15-9.46h4.47c3.38,0,6.16,2.66,6.16,6.07s-2.8,6.07-6.16,6.07h-4.47V.4Z"/>
      <path class="cls-1" d="m91.56,1.72c.17,0,.26-.04.26-.22,0-.15-.19-.15-.34-.15h-.32v.38h.4Zm.53.86h-.36l-.33-.63h-.23v.63h-.33v-1.49h.72c.34,0,.58.06.58.46,0,.27-.14.39-.4.41l.36.63Zm.41-.73c0-.64-.48-1.1-1.09-1.1s-1.09.46-1.09,1.1.47,1.09,1.09,1.09,1.09-.46,1.09-1.09m-2.53,0c0-.8.63-1.44,1.43-1.44s1.43.64,1.43,1.44-.64,1.44-1.43,1.44-1.43-.64-1.43-1.44"/>
    </g>
  </g>
</svg>