<?xml version="1.0" encoding="UTF-8"?>
<!DOCTYPE svg PUBLIC "-//W3C//DTD SVG 1.1//EN" "http://www.w3.org/Graphics/SVG/1.1/DTD/svg11.dtd">
<svg xmlns="http://www.w3.org/2000/svg" version="1.1" width="431px" height="123px" style="shape-rendering:geometricPrecision; text-rendering:geometricPrecision; image-rendering:optimizeQuality; fill-rule:evenodd; clip-rule:evenodd" xmlns:xlink="http://www.w3.org/1999/xlink">
<g><path style="opacity:1" fill="#fefefe" d="M -0.5,-0.5 C 143.167,-0.5 286.833,-0.5 430.5,-0.5C 430.5,40.5 430.5,81.5 430.5,122.5C 286.833,122.5 143.167,122.5 -0.5,122.5C -0.5,81.5 -0.5,40.5 -0.5,-0.5 Z"/></g>
<g><path style="opacity:1" fill="#e4419b" d="M 18.5,11.5 C 32.5532,10.707 38.0532,17.0404 35,30.5C 29.5195,37.811 22.6862,39.311 14.5,35C 9.91312,30.7723 8.41312,25.6057 10,19.5C 12.0738,15.9231 14.9072,13.2565 18.5,11.5 Z"/></g>
<g><path style="opacity:1" fill="#fef9fc" d="M 18.5,14.5 C 28.9015,13.0664 33.7349,17.3997 33,27.5C 27.8327,35.4165 21.4994,36.4165 14,30.5C 10.9938,23.7714 12.4938,18.4381 18.5,14.5 Z"/></g>
<g><path style="opacity:1" fill="#e754a4" d="M 21.5,15.5 C 25.314,15.6509 26.9807,17.6509 26.5,21.5C 24.5,21.5 22.5,21.5 20.5,21.5C 21.5862,25.1782 21.5862,28.8449 20.5,32.5C 17.5892,26.5848 17.9226,20.9181 21.5,15.5 Z"/></g>
<g><path style="opacity:1" fill="#e02690" d="M 55.5,21.5 C 75.7744,17.6397 88.2744,25.6397 93,45.5C 93.4998,55.1609 93.6665,64.8276 93.5,74.5C 78.1667,74.5 62.8333,74.5 47.5,74.5C 47.5,70.1667 47.5,65.8333 47.5,61.5C 58.1667,61.5 68.8333,61.5 79.5,61.5C 82.0791,40.7456 73.0791,31.7456 52.5,34.5C 52.3542,30.4809 52.0209,26.4809 51.5,22.5C 53.099,22.7678 54.4324,22.4345 55.5,21.5 Z"/></g>
<g><path style="opacity:1" fill="#e12890" d="M 114.5,21.5 C 125.577,21.1699 136.577,21.8366 147.5,23.5C 147.5,36.1667 147.5,48.8333 147.5,61.5C 156.833,61.5 166.167,61.5 175.5,61.5C 175.5,48.8333 175.5,36.1667 175.5,23.5C 180.167,23.5 184.833,23.5 189.5,23.5C 189.5,40.5 189.5,57.5 189.5,74.5C 175.5,74.5 161.5,74.5 147.5,74.5C 147.286,82.8794 144.286,90.046 138.5,96C 136.283,97.2754 133.949,98.2754 131.5,99C 123.818,99.5407 116.152,99.3741 108.5,98.5C 108.5,94.1667 108.5,89.8333 108.5,85.5C 115.482,86.3988 122.482,86.5654 129.5,86C 132.261,82.7503 133.594,78.917 133.5,74.5C 126.411,74.8844 119.411,74.3844 112.5,73C 108,71.1667 104.833,68 103,63.5C 99.3519,51.5759 100.019,39.9093 105,28.5C 107.79,25.535 110.957,23.2016 114.5,21.5 Z"/></g>
<g><path style="opacity:1" fill="#e02790" d="M 301.5,21.5 C 312.574,21.1698 323.574,21.8365 334.5,23.5C 334.667,40.5033 334.5,57.5033 334,74.5C 333.863,82.2264 331.363,89.0597 326.5,95C 324.112,96.8605 321.446,98.1939 318.5,99C 310.797,99.6422 303.131,99.3089 295.5,98C 294.536,93.9341 294.203,89.7675 294.5,85.5C 301.482,86.3988 308.482,86.5654 315.5,86C 317.333,85.5 318.5,84.3333 319,82.5C 319.497,79.854 319.664,77.1873 319.5,74.5C 297.957,78.4402 287.291,69.6069 287.5,48C 285.896,35.5244 290.562,26.6911 301.5,21.5 Z"/></g>
<g><path style="opacity:1" fill="#e0248f" d="M 206.5,99.5 C 206.5,95.5 206.5,91.5 206.5,87.5C 208.099,87.7678 209.432,87.4345 210.5,86.5C 213.415,86.0874 215.248,84.4207 216,81.5C 216.5,62.1695 216.667,42.8362 216.5,23.5C 221.167,23.5 225.833,23.5 230.5,23.5C 230.5,36.1667 230.5,48.8333 230.5,61.5C 241.167,61.5 251.833,61.5 262.5,61.5C 262.5,48.8333 262.5,36.1667 262.5,23.5C 267.167,23.5 271.833,23.5 276.5,23.5C 276.5,40.5 276.5,57.5 276.5,74.5C 261.167,74.5 245.833,74.5 230.5,74.5C 231.214,83.8513 228.214,91.6847 221.5,98C 216.599,99.3254 211.599,99.8254 206.5,99.5 Z"/></g>
<g><path style="opacity:1" fill="#e12890" d="M 353.5,23.5 C 358.5,23.5 363.5,23.5 368.5,23.5C 368.5,36.1667 368.5,48.8333 368.5,61.5C 378.833,61.5 389.167,61.5 399.5,61.5C 399.5,48.8333 399.5,36.1667 399.5,23.5C 404.167,23.5 408.833,23.5 413.5,23.5C 413.5,40.5 413.5,57.5 413.5,74.5C 398.167,74.5 382.833,74.5 367.5,74.5C 368.212,82.1928 366.379,89.1928 362,95.5C 356.422,99.1016 350.255,100.435 343.5,99.5C 343.5,95.1667 343.5,90.8333 343.5,86.5C 345.857,86.6633 348.19,86.4966 350.5,86C 351.893,84.8289 352.727,83.3289 353,81.5C 353.5,62.1695 353.667,42.8362 353.5,23.5 Z"/></g>
<g><path style="opacity:1" fill="#fefbfd" d="M 120.5,34.5 C 124.833,34.5 129.167,34.5 133.5,34.5C 133.5,43.5 133.5,52.5 133.5,61.5C 118.064,64.2305 111.897,57.8972 115,42.5C 116.117,39.2409 117.95,36.5743 120.5,34.5 Z"/></g>
<g><path style="opacity:1" fill="#fefefe" d="M 307.5,34.5 C 311.833,34.5 316.167,34.5 320.5,34.5C 320.5,43.5 320.5,52.5 320.5,61.5C 304.582,64.039 298.416,57.3723 302,41.5C 302.967,38.3794 304.8,36.046 307.5,34.5 Z"/></g>
<g><path style="opacity:1" fill="#df1e8d" d="M 179.5,82.5 C 179.5,86.5 179.5,90.5 179.5,94.5C 176.167,94.5 172.833,94.5 169.5,94.5C 169.5,90.5 169.5,86.5 169.5,82.5C 172.833,82.5 176.167,82.5 179.5,82.5 Z"/></g>
<g><path style="opacity:1" fill="#e12991" d="M 184.5,82.5 C 188.167,82.5 191.833,82.5 195.5,82.5C 195.5,86.8333 195.5,91.1667 195.5,95.5C 191.833,95.5 188.167,95.5 184.5,95.5C 184.5,91.1667 184.5,86.8333 184.5,82.5 Z"/></g>
<g><path style="opacity:1" fill="#e12c91" d="M 262.5,82.5 C 266.833,82.5 271.167,82.5 275.5,82.5C 275.5,86.8333 275.5,91.1667 275.5,95.5C 271.167,95.5 266.833,95.5 262.5,95.5C 262.5,91.1667 262.5,86.8333 262.5,82.5 Z"/></g>
<g><path style="opacity:1" fill="#e12c91" d="M 400.5,82.5 C 404.833,82.5 409.167,82.5 413.5,82.5C 413.5,86.8333 413.5,91.1667 413.5,95.5C 409.167,95.5 404.833,95.5 400.5,95.5C 400.5,91.1667 400.5,86.8333 400.5,82.5 Z"/></g>
<g><path style="opacity:1" fill="#ef8fc6" d="M 210.5,86.5 C 209.432,87.4345 208.099,87.7678 206.5,87.5C 206.5,91.5 206.5,95.5 206.5,99.5C 205.515,95.3656 205.182,91.0323 205.5,86.5C 207.167,86.5 208.833,86.5 210.5,86.5 Z"/></g>
<g><path style="opacity:1" fill="#eb6cb4" d="M 179.5,82.5 C 180.485,86.6344 180.818,90.9677 180.5,95.5C 176.629,95.815 172.962,95.4816 169.5,94.5C 172.833,94.5 176.167,94.5 179.5,94.5C 179.5,90.5 179.5,86.5 179.5,82.5 Z"/></g>
</svg>
