<?xml version="1.0" encoding="UTF-8" standalone="no"?>
<svg
   xmlns:dc="http://purl.org/dc/elements/1.1/"
   xmlns:cc="http://creativecommons.org/ns#"
   xmlns:rdf="http://www.w3.org/1999/02/22-rdf-syntax-ns#"
   xmlns:svg="http://www.w3.org/2000/svg"
   xmlns="http://www.w3.org/2000/svg"
   viewBox="0 0 1122.52 793.70135"
   height="793.70135"
   width="1122.52"
   xml:space="preserve"
   id="svg2"
   version="1.1"><metadata
     id="metadata8"><rdf:RDF><cc:Work
         rdf:about=""><dc:format>image/svg+xml</dc:format><dc:type
           rdf:resource="http://purl.org/dc/dcmitype/StillImage" /></cc:Work></rdf:RDF></metadata><defs
     id="defs6"><clipPath
       id="clipPath18"
       clipPathUnits="userSpaceOnUse"><path
         id="path16"
         d="M 71.76,152.674 H 771.115 V 446.429 H 71.76 Z" /></clipPath></defs><g
     transform="matrix(1.3333333,0,0,-1.3333333,0,793.70133)"
     id="g10"><g
       id="g12"><g
         clip-path="url(#clipPath18)"
         id="g14"><g
           transform="translate(121.5419,256.002)"
           id="g20"><path
             id="path22"
             style="fill:#d8038d;fill-opacity:1;fill-rule:nonzero;stroke:none"
             d="m 0,0 c 2.391,-3.135 4.066,-9.324 2.148,-13.698 -3.024,-7.345 -17.364,-8.338 -16.171,-3.549 6.693,26.243 -24.221,17.662 -19.759,7.757 5.655,-12.214 19.838,-12.708 26.372,-23.357 3.827,-6.273 1.435,-16.919 -6.134,-18.898 -1.755,-0.412 -4.063,0.495 -3.826,2.723 0.559,5.778 -2.388,10.151 -5.575,13.203 -8.446,8.421 -33.942,17.499 -24.94,34.418 5.501,10.234 16.734,13.78 27.408,12.13 C -11.792,9.407 -4.542,6.027 0,0 m -2.631,-61.979 c 2.311,-4.374 1.356,-9.408 -2.148,-11.224 -3.587,-1.733 -8.369,0.329 -10.68,4.705 -2.308,4.374 -1.352,9.408 2.235,11.224 3.503,1.733 8.282,-0.332 10.593,-4.705" /></g><g
           transform="translate(217.1837,182.2212)"
           id="g24"><path
             id="path26"
             style="fill:#d8038d;fill-opacity:1;fill-rule:nonzero;stroke:none"
             d="m 0,0 c -9.881,-0.99 -21.114,1.567 -27.408,10.48 -0.476,1.321 -2.071,1.239 -2.947,0 -7.726,-11.224 -31.79,-8.747 -35.696,5.283 -4.54,15.019 7.969,21.953 15.059,32.764 l -1.829,8.252 c -1.039,5.944 24.857,12.217 28.76,-18.897 C -20.318,22.942 -17.767,9.241 0,11.719 Z m -46.53,79.31 c 2.391,-4.374 1.356,-9.408 -2.151,-11.224 -3.584,-1.813 -8.366,0.249 -10.757,4.705 -2.311,4.373 -1.352,9.408 2.232,11.224 3.506,1.816 8.368,-0.249 10.676,-4.705 m -3.347,-49.023 c -8.445,-22.776 19.762,-16.835 15.536,-3.383 -1.592,5.283 -1.672,15.846 -8.682,15.846 -2.075,-4.211 -4.699,-7.923 -6.854,-12.463 m 20.001,49.023 c 2.388,-4.374 1.433,-9.408 -2.154,-11.224 -3.583,-1.813 -8.365,0.249 -10.757,4.705 -2.311,4.373 -1.352,9.408 2.232,11.224 3.586,1.816 8.368,-0.249 10.679,-4.705" /></g><g
           transform="translate(231.2843,169.5942)"
           id="g28"><path
             id="path30"
             style="fill:#d8038d;fill-opacity:1;fill-rule:nonzero;stroke:none"
             d="m 0,0 c 2.391,-4.373 1.355,-9.407 -2.148,-11.224 -3.59,-1.816 -8.369,0.249 -10.757,4.706 -2.311,4.373 -1.355,9.407 2.231,11.223 C -7.167,6.518 -2.311,4.456 0,0 m -14.1,24.347 c 4.222,0.657 8.205,2.723 9.001,7.345 -0.952,6.933 -6.134,24.426 -2.867,29.215 5.179,7.757 19.279,1.321 17.051,-1.402 C 8.289,58.596 6.774,58.184 6.534,57.523 4.862,51.005 8.206,41.843 8.685,34.415 9.641,28.471 7.33,20.714 1.991,17.496 -2.708,14.69 -8.682,12.874 -14.1,12.628 Z M 16.651,0 C 19.042,-4.373 18.086,-9.407 14.503,-11.224 10.916,-13.04 6.137,-10.975 3.746,-6.518 1.435,-2.145 2.391,2.889 5.978,4.705 9.561,6.518 14.343,4.456 16.651,0" /></g><g
           transform="translate(271.6844,226.6218)"
           id="g32"><path
             id="path34"
             style="fill:#d8038d;fill-opacity:1;fill-rule:nonzero;stroke:none"
             d="m 0,0 c -4.542,0.083 -2.308,-7.508 -1.832,-10.563 0.716,-3.221 1.515,-6.024 2.471,-8.584 3.823,-8.172 8.762,-14.441 15.376,-13.535 V -44.4 c -4.539,-0.495 -9.002,0.329 -12.508,3.052 0.796,-7.674 0.556,-14.771 -1.992,-19.476 -6.93,-11.552 -21.193,-7.674 -27.011,2.56 -0.476,0.575 -0.633,1.568 0,1.485 2.551,-0.332 4.702,-2.56 7.49,-2.56 9.88,-0.08 8.049,12.545 6.693,19.146 -2.071,10.072 -8.922,34.996 -5.415,40.608 3.74,6.024 13.381,7.425 17.527,1.069 C 1.196,0.907 1.036,-0.163 0,0" /></g><g
           transform="translate(333.2727,196.6636)"
           id="g36"><path
             id="path38"
             style="fill:#d8038d;fill-opacity:1;fill-rule:nonzero;stroke:none"
             d="m 0,0 c 0.08,0 6.694,-2.474 11.872,-2.723 v -11.718 c -2.071,0.079 -3.746,1.072 -5.258,1.321 18.486,-26.99 -13.864,-42.092 -33.702,-20.8 -8.446,9.078 -10.597,14.196 -9.801,21.541 -1.512,-1.983 -5.178,-2.228 -8.682,-2.062 v 11.718 c 3.424,0 6.611,1.484 7.17,1.65 -7.17,12.792 -4.223,42.916 15.775,41.017 C -2.708,38.047 7.57,18.074 0,0 m -26.928,12.545 c -0.083,-9.078 1.035,-15.517 4.939,-15.351 13.387,0.578 9.241,32.516 -1.036,32.024 -3.903,-0.166 -3.903,-7.594 -3.903,-16.673 M -6.93,-17.579 c -5.179,6.106 -11.556,7.262 -14.263,5.034 -5.179,-4.374 9.241,-28.886 16.734,-20.219 2.944,3.383 2.707,9.078 -2.471,15.185" /></g><g
           transform="translate(364.4259,229.9238)"
           id="g40"><path
             id="path42"
             style="fill:#d8038d;fill-opacity:1;fill-rule:nonzero;stroke:none"
             d="m 0,0 c 0.4,-9.739 1.991,-19.064 4.622,-26.907 1.912,-5.446 5.019,-13.286 11.949,-11.964 2.231,0.412 3.667,2.557 3.587,5.363 -0.4,10.151 -4.862,21.624 -3.667,29.135 1.116,7.508 9.005,7.179 12.668,7.096 0.717,-0.661 0.4,-2.311 0.56,-3.796 1.195,-10.894 2.787,-21.208 5.335,-30.373 2.231,-3.547 7.413,-10.48 12.352,-6.847 2.231,1.65 1.911,4.539 2.151,7.096 -1.515,9.244 -4.303,17.167 -4.386,26.326 -0.076,6.521 12.748,10.646 13.787,4.376 0.716,-4.044 1.196,-8.089 1.755,-11.801 2.148,-10.566 5.815,-25.503 19.119,-23.686 v -11.722 c -6.371,-0.657 -15.216,0.661 -18.643,5.366 -0.875,-1.321 -1.991,-2.394 -3.187,-3.301 -7.249,-3.715 -17.05,-4.456 -25.496,4.952 -14.899,-20.386 -28.999,-3.055 -31.071,-0.744 -4.066,-5.363 -16.018,-6.107 -20.717,-6.273 v 11.722 c 3.427,0.08 12.429,0.329 7.969,7.923 -2.074,6.601 -0.639,0.74 -2.95,8.912 -0.397,1.322 -0.716,2.723 -1.116,4.045 -2.068,9.49 2.551,18.652 13.544,17.908 C -0.476,2.723 -0.08,1.156 0,0 m 21.034,25.585 c 2.311,-4.456 1.355,-9.493 -2.232,-11.31 -3.586,-1.813 -8.365,0.332 -10.676,4.706 -2.388,4.456 -1.435,9.493 2.151,11.306 3.587,1.817 8.366,-0.328 10.757,-4.702 m 4.699,16.092 c 2.311,-4.373 1.355,-9.407 -2.228,-11.224 -3.51,-1.816 -8.366,0.329 -10.677,4.703 -2.391,4.459 -1.355,9.493 2.231,11.309 3.504,1.814 8.286,-0.332 10.674,-4.788 M 37.605,25.585 c 2.391,-4.456 1.352,-9.493 -2.231,-11.31 -3.507,-1.813 -8.286,0.332 -10.674,4.706 -2.311,4.456 -1.355,9.493 2.228,11.306 3.51,1.817 8.366,-0.328 10.677,-4.702" /></g><g
           transform="translate(444.2614,193.9406)"
           id="g44"><path
             id="path46"
             style="fill:#d8038d;fill-opacity:1;fill-rule:nonzero;stroke:none"
             d="m 0,0 c 11.553,0.329 10.993,7.923 9.481,15.763 0.16,0 -7.569,43.905 -8.285,47.95 -0.32,8.417 4.858,12.545 12.987,9.822 1.829,-0.578 3.584,-1.405 4.779,-2.64 0.4,-0.415 0.477,-1.488 -0.239,-1.736 C 17.847,68.83 16.731,67.84 16.811,67.096 15.379,54.551 27.011,12.13 23.585,-0.166 20.797,-10.317 8.206,-11.224 0,-11.719 Z" /></g><g
           transform="translate(498.2827,263.5946)"
           id="g48"><path
             id="path50"
             style="fill:#d8038d;fill-opacity:1;fill-rule:nonzero;stroke:none"
             d="m 0,0 c 0.32,-0.412 0.32,-1.567 -0.317,-1.733 -0.958,-0.329 -2.071,-1.319 -1.991,-2.063 1.116,-16.423 3.98,-31.937 5.338,-47.783 1.432,-16.261 7.09,-27.319 -10.996,-34.332 -0.876,-0.498 -2.391,0.907 -2.231,1.896 2.471,3.052 2.071,9.822 0.956,17.002 -3.267,20.714 -5.978,39.943 -8.845,59.834 -0.077,8.335 5.338,12.708 13.307,9.819 C -2.947,1.982 -1.192,1.156 0,0" /></g><g
           transform="translate(532.7366,255.5078)"
           id="g52"><path
             id="path54"
             style="fill:#d8038d;fill-opacity:1;fill-rule:nonzero;stroke:none"
             d="m 0,0 c 2.388,-4.373 1.355,-9.407 -2.154,-11.227 -3.584,-1.813 -8.363,0.249 -10.754,4.709 -2.311,4.37 -1.355,9.407 2.231,11.223 C -7.17,6.518 -2.311,4.456 0,0 m 18.882,-71.636 c -15.378,-6.106 -39.519,5.861 -30.275,26.575 2.788,6.024 8.842,9.736 10.277,16.175 -0.639,2.557 -2.234,4.622 -3.347,6.601 6.774,9.74 19.919,0.578 23.822,-3.878 C 31.95,-37.47 43.103,-62.062 18.882,-71.636 M 0.716,-51.005 C 0,-57.689 5.019,-63.713 11.789,-63.384 c 4.463,0.166 6.617,3.55 7.33,7.594 1.278,7.508 -5.179,15.846 -9.002,21.375 -0.476,0.661 -3.344,3.052 -3.583,1.073 C 5.815,-39.861 1.272,-44.566 0.716,-51.005 M 16.651,0 C 19.039,-4.373 18.086,-9.407 14.5,-11.227 10.913,-13.04 6.134,-10.978 3.743,-6.518 1.435,-2.148 2.388,2.889 5.978,4.705 9.561,6.518 14.34,4.456 16.651,0" /></g><g
           transform="translate(588.5917,226.6218)"
           id="g56"><path
             id="path58"
             style="fill:#d8038d;fill-opacity:1;fill-rule:nonzero;stroke:none"
             d="m 0,0 c -3.107,0.083 -2.944,-0.99 -2.468,-4.373 0.08,-11.802 10.993,-43.411 3.983,-56.451 -7.01,-11.552 -21.273,-7.674 -27.091,2.56 -0.396,0.575 -0.556,1.568 0,1.485 2.631,-0.332 4.702,-2.56 7.49,-2.56 9.96,-0.08 8.125,12.545 6.69,19.146 -2.068,10.072 -8.839,34.996 -5.412,40.608 3.82,6.024 13.461,7.425 17.604,1.069 C 1.116,0.907 0.959,-0.163 0,0" /></g><g
           transform="translate(637.514,220.8459)"
           id="g60"><path
             id="path62"
             style="fill:#d8038d;fill-opacity:1;fill-rule:nonzero;stroke:none"
             d="m 0,0 c 11.789,-16.507 13.704,-42.504 -1.036,-57.44 -8.205,-6.767 -25.656,-4.705 -30.515,3.63 -0.479,0.906 -1.118,1.899 -1.432,2.888 -0.083,0.412 0,1.817 0.077,2.063 0.556,0.909 1.752,0.826 2.471,0.166 8.445,-7.757 23.025,-4.789 24.221,8.172 0.16,0.823 0.399,2.391 -0.477,2.474 -2.79,0.165 -5.977,0.248 -8.765,0.826 -23.185,2.557 -36.652,34.661 -12.671,47.784 -0.237,-0.083 0.959,0.495 2.391,0.744 C -13.544,13.864 -5.099,7.096 0,0 m -7.41,-28.062 c 0.719,-0.08 0.876,0.992 0.796,1.653 -0.876,7.923 -2.867,27.07 -12.029,29.461 -2.391,0.661 -3.826,-0.495 -4.862,-2.723 -5.894,-12.625 2.631,-26.575 16.095,-28.391" /></g><g
           transform="translate(712.0927,193.9406)"
           id="g64"><path
             id="path66"
             style="fill:#d8038d;fill-opacity:1;fill-rule:nonzero;stroke:none"
             d="m 0,0 v -11.719 c -6.691,-0.66 -13.224,1.402 -16.891,8.335 -3.746,-15.268 -29.239,-24.841 -40.872,-14.195 -4.622,4.705 -2.311,21.706 3.107,16.835 1.912,-1.979 2.229,-4.785 5.019,-6.684 1.595,-2.394 24.381,1.238 25.336,8.995 2.788,5.695 -12.907,15.597 -13.384,25.586 -0.16,5.774 9.002,21.374 12.429,14.358 C -20.874,30.37 -14.503,-2.062 0,0" /></g><g
           transform="translate(712.0927,193.9406)"
           id="g68"><path
             id="path70"
             style="fill:#d8038d;fill-opacity:1;fill-rule:nonzero;stroke:none"
             d="m 0,0 c 11.552,0.329 10.993,7.923 9.481,15.763 0.16,0 -7.569,43.905 -8.286,47.95 -0.319,8.417 4.859,12.545 12.988,9.822 1.829,-0.578 3.584,-1.405 4.779,-2.64 0.4,-0.415 0.477,-1.488 -0.239,-1.736 C 17.847,68.83 16.731,67.84 16.811,67.096 15.379,54.551 27.011,12.13 23.585,-0.166 20.797,-10.317 8.206,-11.224 0,-11.719 Z" /></g><g
           transform="translate(766.1155,263.5946)"
           id="g72"><path
             id="path74"
             style="fill:#d8038d;fill-opacity:1;fill-rule:nonzero;stroke:none"
             d="m 0,0 c 0.32,-0.412 0.32,-1.567 -0.317,-1.733 -0.955,-0.329 -2.071,-1.319 -1.991,-2.063 1.116,-16.423 3.983,-31.937 5.338,-47.783 1.435,-16.261 7.09,-27.319 -10.993,-34.332 -0.879,-0.498 -2.394,0.907 -2.234,1.896 2.471,3.052 2.071,9.822 0.956,17.002 -3.264,20.714 -5.975,39.943 -8.845,59.834 -0.077,8.335 5.338,12.708 13.307,9.819 C -2.944,1.982 -1.192,1.156 0,0" /></g><g
           transform="translate(430.0225,356.211)"
           id="g76"><path
             id="path78"
             style="fill:#d8038d;fill-opacity:1;fill-rule:nonzero;stroke:none"
             d="m 0,0 v -11.719 c -6.853,-0.743 -13.304,-0.082 -17.927,2.229 1.915,-8.501 -2.947,-14.362 -8.285,-17.251 -16.015,-8.663 -56.251,-8.086 -65.812,11.968 -7.566,15.929 10.12,37.054 13.464,29.709 0.4,-3.795 -0.556,-7.262 -0.157,-10.892 1.592,-16.589 11.393,-26.163 28.124,-26.657 7.093,-0.166 12.908,2.477 15.539,6.518 5.891,9.079 -9.005,19.973 -12.512,25.585 -7.489,12.134 6.058,32.353 10.437,22.119 C -31.391,18.074 -16.811,-2.311 0,0 m -52.744,-49.188 c 2.391,-4.374 1.355,-9.408 -2.151,-11.224 -3.584,-1.816 -8.366,0.249 -10.757,4.705 -2.311,4.374 -1.352,9.408 2.231,11.224 3.507,1.816 8.366,-0.249 10.677,-4.705 m 16.654,0 c 2.388,-4.374 1.429,-9.408 -2.154,-11.224 -3.584,-1.816 -8.366,0.249 -10.757,4.705 -2.311,4.374 -1.352,9.408 2.231,11.224 3.587,1.816 8.369,-0.249 10.68,-4.705" /></g><g
           transform="translate(430.0225,344.4919)"
           id="g80"><path
             id="path82"
             style="fill:#d8038d;fill-opacity:1;fill-rule:nonzero;stroke:none"
             d="m 0,0 v 11.719 c 3.663,0.082 7.33,0.826 10.993,1.899 -0.08,0.246 -0.236,0.495 -0.556,0.74 -6.534,4.54 -11.789,16.424 -4.066,22.78 0.562,0.495 0.639,2.477 -0.556,3.135 C -4.622,45.473 -7.41,57.523 5.019,62.557 32.346,73.615 61.906,45.639 67.247,20.136 67.88,16.175 68.123,8.75 61.189,4.456 50.276,-2.394 33.782,1.156 25.256,6.273 24.7,6.024 24.141,5.861 23.585,5.695 15.775,2.889 7.969,0.412 0,0 m 12.349,44.483 c 0,-0.824 1.515,-2.557 2.234,-2.394 4.14,0.993 10.274,1.982 14.497,-0.083 10.28,-4.951 15.615,-14.113 9.244,-24.593 -1.039,-1.567 -2.95,-3.878 -0.959,-5.694 6.058,-4.623 15.059,6.106 13.228,11.884 -1.512,11.556 -18.007,33.176 -32.59,30.37 -3.663,-1.155 -5.654,-4.785 -5.654,-9.49 m 15.538,-19.97 c 2.068,5.363 -1.595,9.324 -5.974,10.231 -3.91,0.826 -8.209,-5.197 -7.094,-9.079 1.992,-6.767 9.561,-10.314 13.068,-1.152" /></g><g
           transform="translate(539.9262,418.9337)"
           id="g84"><path
             id="path86"
             style="fill:#d8038d;fill-opacity:1;fill-rule:nonzero;stroke:none"
             d="m 0,0 c 2.068,-16.095 3.983,-31.692 5.895,-48.033 0.796,-7.016 1.592,-16.095 11.395,-14.69 v -11.719 c -6.137,-0.577 -16.174,0.99 -19.758,6.519 -6.853,10.563 -8.289,54.717 -13.387,66.19 -0.16,0.74 -1.435,1.318 -2.471,1.318 -0.716,0 -0.956,1.156 -0.716,1.654 0.796,1.484 2.231,2.888 3.826,4.044 C -8.445,10.563 -2.154,8.086 0,0" /></g><g
           transform="translate(606.1341,349.773)"
           id="g88"><path
             id="path90"
             style="fill:#d8038d;fill-opacity:1;fill-rule:nonzero;stroke:none"
             d="m 0,0 v -0.166 c 0,0 -0.077,0 -0.077,0.083 -7.729,-7.757 -19.125,-7.013 -27.011,0.578 -3.347,3.549 -8.126,-5.034 -21.83,-5.775 V 6.439 c 6.055,0.245 8.363,2.888 7.17,8.746 -2.071,9.988 -0.399,25.091 11.473,28.142 7.966,2.066 16.175,-0.494 22.865,-4.951 C 3.983,30.619 8.605,12.794 0.639,0.661 0.4,0.412 0.237,0.249 0,0 m -25.177,32.104 c -3.666,-7.097 -1.435,-18.898 2.312,-24.264 1.035,-1.484 5.814,-4.868 7.806,-3.796 10.197,5.941 4.146,31.526 -7.567,30.122 -0.955,-0.08 -1.991,-0.99 -2.551,-2.062" /></g><g
           transform="translate(232.8809,389.6559)"
           id="g92"><path
             id="path94"
             style="fill:#d8038d;fill-opacity:1;fill-rule:nonzero;stroke:none"
             d="m 0,0 c -1.933,-2.4 -3.614,-5.013 -4.601,-7.938 -2.563,-7.582 -0.35,-16.329 4.521,-22.497 9.312,-11.786 28.717,-11.595 37.808,0.304 3.952,5.17 5.799,11.906 4.982,18.366 -0.845,6.682 -5.099,12.696 -9.451,17.675 -2.173,2.489 -4.53,4.81 -6.955,7.053 -1.25,1.156 -2.523,2.287 -3.801,3.415 -0.885,0.78 -1.936,2.176 -3.206,2.252 C 17.693,18.729 15.92,16.393 14.856,15.388 11.095,11.829 7.499,8.101 3.909,4.367 2.578,2.984 1.239,1.537 0,0 m 41.957,-11.488 c -0.074,0.034 -0.142,0.058 -0.2,0.077 0.052,0.077 0.108,0.15 0.178,0.224 0.006,-0.006 0.013,-0.012 0.022,-0.015 z m -0.44,-8.682 c 0,0.046 -0.003,0.092 -0.006,0.135 0.028,-0.015 0.058,-0.034 0.092,-0.046 -0.027,-0.031 -0.052,-0.061 -0.086,-0.089" /></g><g
           transform="translate(321.1722,376.2517)"
           id="g96"><path
             id="path98"
             style="fill:#d8038d;fill-opacity:1;fill-rule:nonzero;stroke:none"
             d="m 0,0 c 0,38.93 -31.698,70.459 -70.695,70.176 -38.576,-0.277 -69.912,-32.064 -69.66,-70.64 0.234,-36.425 28.222,-66.257 63.879,-69.429 v -15.714 c 0,-1.666 -1.352,-3.015 -3.018,-3.015 h -13.759 c -1.666,0 -3.018,-1.352 -3.018,-3.018 v -8.811 c 0,-1.666 1.352,-3.018 3.018,-3.018 h 13.759 c 1.666,0 3.018,-1.349 3.018,-3.018 v -8.362 c 0,-1.666 1.349,-3.015 3.015,-3.015 h 8.814 c 1.666,0 3.015,1.349 3.015,3.015 v 8.362 c 0,1.669 1.352,3.018 3.018,3.018 h 13.759 c 1.669,0 3.018,1.352 3.018,3.018 v 8.811 c 0,1.666 -1.349,3.018 -3.018,3.018 h -13.759 c -1.666,0 -3.018,1.349 -3.018,3.015 v 15.948 C -26.904,-65.443 0,-35.865 0,0 m -128.32,0 c 0,32.11 26.031,58.141 58.141,58.141 32.11,0 58.141,-26.031 58.141,-58.141 0,-32.11 -26.031,-58.141 -58.141,-58.141 -32.11,0 -58.141,26.031 -58.141,58.141" /></g></g></g></g></svg>